<svg width="46" height="14" viewBox="0 0 46 14" fill="none" xmlns="http://www.w3.org/2000/svg">
<path d="M8.85893 4.41167H7.04314C6.99135 4.11389 6.89587 3.8501 6.75669 3.62029C6.61751 3.38725 6.44434 3.18981 6.23719 3.02798C6.03004 2.86614 5.79376 2.74476 5.52835 2.66385C5.26618 2.57969 4.98297 2.53761 4.67872 2.53761C4.13819 2.53761 3.65915 2.67356 3.24162 2.94544C2.82408 3.21409 2.49717 3.60897 2.26089 4.13008C2.02461 4.64795 1.90647 5.28073 1.90647 6.02841C1.90647 6.78904 2.02461 7.42991 2.26089 7.95102C2.50041 8.46889 2.82732 8.86053 3.24162 9.12594C3.65915 9.38812 4.13657 9.5192 4.67386 9.5192C4.97164 9.5192 5.25 9.48036 5.50893 9.40268C5.77111 9.32176 6.00577 9.20362 6.21292 9.04826C6.42331 8.8929 6.59971 8.70193 6.74212 8.47536C6.88777 8.24879 6.98811 7.98986 7.04314 7.69855L8.85893 7.70826C8.79096 8.18082 8.64369 8.62425 8.41712 9.03855C8.19379 9.45285 7.90087 9.8186 7.53835 10.1358C7.17584 10.4498 6.75183 10.6957 6.26633 10.8738C5.78082 11.0486 5.24191 11.1359 4.64959 11.1359C3.77567 11.1359 2.99563 10.9336 2.30944 10.5291C1.62326 10.1245 1.08273 9.54024 0.68785 8.77638C0.292971 8.01251 0.0955318 7.09652 0.0955318 6.02841C0.0955318 4.95706 0.29459 4.04107 0.692705 3.28044C1.09082 2.51658 1.63297 1.93235 2.31915 1.52776C3.00534 1.12317 3.78215 0.920876 4.64959 0.920876C5.20306 0.920876 5.7177 0.998557 6.1935 1.15392C6.6693 1.30928 7.09331 1.53747 7.46553 1.83848C7.83775 2.13626 8.14362 2.50201 8.38314 2.93573C8.62589 3.36621 8.78449 3.85819 8.85893 4.41167ZM13.2837 11.1457C12.5554 11.1457 11.9242 10.9854 11.3902 10.665C10.8561 10.3446 10.4418 9.89628 10.1473 9.32015C9.85598 8.74401 9.71033 8.07077 9.71033 7.30044C9.71033 6.5301 9.85598 5.85524 10.1473 5.27587C10.4418 4.6965 10.8561 4.2466 11.3902 3.92616C11.9242 3.60573 12.5554 3.44551 13.2837 3.44551C14.0119 3.44551 14.6431 3.60573 15.1771 3.92616C15.7112 4.2466 16.1239 4.6965 16.4152 5.27587C16.7097 5.85524 16.857 6.5301 16.857 7.30044C16.857 8.07077 16.7097 8.74401 16.4152 9.32015C16.1239 9.89628 15.7112 10.3446 15.1771 10.665C14.6431 10.9854 14.0119 11.1457 13.2837 11.1457ZM13.2934 9.73768C13.6882 9.73768 14.0184 9.62925 14.2838 9.41239C14.5492 9.1923 14.7467 8.89775 14.8761 8.52877C15.0088 8.15978 15.0752 7.74872 15.0752 7.29558C15.0752 6.83921 15.0088 6.42652 14.8761 6.05754C14.7467 5.68532 14.5492 5.38916 14.2838 5.16906C14.0184 4.94897 13.6882 4.83892 13.2934 4.83892C12.8888 4.83892 12.5522 4.94897 12.2835 5.16906C12.0181 5.38916 11.819 5.68532 11.6863 6.05754C11.5569 6.42652 11.4921 6.83921 11.4921 7.29558C11.4921 7.74872 11.5569 8.15978 11.6863 8.52877C11.819 8.89775 12.0181 9.1923 12.2835 9.41239C12.5522 9.62925 12.8888 9.73768 13.2934 9.73768ZM17.9487 11V3.54261H19.6528V4.78551H19.7305C19.8665 4.35503 20.0995 4.02327 20.4296 3.79022C20.763 3.55394 21.1433 3.4358 21.5706 3.4358C21.6677 3.4358 21.7761 3.44066 21.8959 3.45037C22.0189 3.45684 22.1208 3.46817 22.2017 3.48435V5.10109C22.1273 5.0752 22.0092 5.05254 21.8473 5.03312C21.6887 5.01046 21.535 4.99913 21.3861 4.99913C21.0657 4.99913 20.7776 5.06872 20.5219 5.2079C20.2694 5.34384 20.0704 5.53319 19.9247 5.77595C19.7791 6.0187 19.7062 6.29867 19.7062 6.61587V11H17.9487ZM22.9694 13.7965V3.54261H24.6978V4.7758H24.7998C24.8904 4.59455 25.0182 4.40196 25.1833 4.19805C25.3484 3.9909 25.5717 3.8145 25.8533 3.66884C26.1349 3.51996 26.4942 3.44551 26.9311 3.44551C27.5073 3.44551 28.0268 3.59278 28.4896 3.88732C28.9557 4.17863 29.3247 4.61073 29.5966 5.18363C29.8717 5.75329 30.0092 6.45242 30.0092 7.28102C30.0092 8.09991 29.8749 8.7958 29.6063 9.3687C29.3376 9.94159 28.9719 10.3786 28.509 10.6796C28.0462 10.9806 27.5218 11.1311 26.936 11.1311C26.5087 11.1311 26.1543 11.0599 25.8727 10.9175C25.5911 10.775 25.3646 10.6035 25.193 10.4028C25.0247 10.1989 24.8936 10.0063 24.7998 9.82507H24.7269V13.7965H22.9694ZM24.6929 7.27131C24.6929 7.75358 24.7609 8.17597 24.8969 8.53848C25.036 8.90099 25.2351 9.1842 25.494 9.38812C25.7562 9.58879 26.0734 9.68913 26.4456 9.68913C26.834 9.68913 27.1593 9.58556 27.4215 9.37841C27.6837 9.16802 27.8811 8.88157 28.0138 8.51906C28.1498 8.15331 28.2177 7.73739 28.2177 7.27131C28.2177 6.80846 28.1514 6.39739 28.0187 6.03812C27.886 5.67884 27.6885 5.39725 27.4263 5.19334C27.1642 4.98942 26.8373 4.88747 26.4456 4.88747C26.0702 4.88747 25.7513 4.98619 25.4892 5.18363C25.227 5.38107 25.0279 5.65781 24.892 6.01384C24.7593 6.36988 24.6929 6.78904 24.6929 7.27131ZM35.8674 7.86363V3.54261H37.625V11H35.9208V9.67457H35.8432C35.6748 10.0921 35.3981 10.4336 35.0129 10.699C34.631 10.9644 34.1601 11.0971 33.6001 11.0971C33.1114 11.0971 32.6793 10.9887 32.3038 10.7718C31.9316 10.5517 31.6403 10.2329 31.4299 9.81536C31.2195 9.39459 31.1143 8.88643 31.1143 8.29087V3.54261H32.8718V8.01899C32.8718 8.49155 33.0013 8.86701 33.2603 9.14536C33.5192 9.42372 33.859 9.5629 34.2798 9.5629C34.5388 9.5629 34.7896 9.49978 35.0324 9.37355C35.2751 9.24732 35.4742 9.05959 35.6295 8.81036C35.7881 8.5579 35.8674 8.24232 35.8674 7.86363ZM44.9263 5.51377L43.3241 5.68855C43.2788 5.52672 43.1995 5.37459 43.0862 5.23218C42.9762 5.08976 42.8273 4.97486 42.6396 4.88747C42.4518 4.80008 42.222 4.75638 41.9502 4.75638C41.5844 4.75638 41.2769 4.83568 41.0277 4.99428C40.7817 5.15288 40.6603 5.35841 40.6636 5.61087C40.6603 5.82773 40.7396 6.00413 40.9015 6.14008C41.0665 6.27602 41.3384 6.38768 41.7171 6.47508L42.9891 6.74696C43.6947 6.89908 44.2191 7.14022 44.5622 7.47036C44.9085 7.80051 45.0833 8.23261 45.0865 8.76667C45.0833 9.23599 44.9457 9.65029 44.6739 10.0096C44.4052 10.3656 44.0314 10.644 43.5523 10.8446C43.0733 11.0453 42.5231 11.1457 41.9016 11.1457C40.9889 11.1457 40.2541 10.9547 39.6974 10.5728C39.1407 10.1876 38.8089 9.65191 38.7021 8.96573L40.416 8.80065C40.4936 9.13727 40.6587 9.39135 40.9112 9.5629C41.1636 9.73445 41.4922 9.82022 41.8968 9.82022C42.3143 9.82022 42.6493 9.73445 42.9018 9.5629C43.1575 9.39135 43.2853 9.17935 43.2853 8.92689C43.2853 8.71326 43.2028 8.53686 43.0377 8.39768C42.8759 8.2585 42.6234 8.15169 42.2803 8.07725L41.0083 7.81022C40.293 7.66133 39.7638 7.41049 39.4207 7.05768C39.0776 6.70165 38.9076 6.25174 38.9109 5.70797C38.9076 5.24836 39.0323 4.85025 39.2847 4.51363C39.5404 4.17377 39.8948 3.9116 40.348 3.72711C40.8044 3.53938 41.3303 3.44551 41.9259 3.44551C42.7998 3.44551 43.4876 3.63162 43.9893 4.00385C44.4942 4.37607 44.8066 4.87938 44.9263 5.51377Z" fill="#6366F1"/>
</svg>
